<svg width="24" height="24" viewBox="0 0 24 24" fill="none" xmlns="http://www.w3.org/2000/svg">
<path d="M18 14V4M12 6V4V6ZM12 6C10.8954 6 10 6.89543 10 8C10 9.10457 10.8954 10 12 10V6ZM12 6C13.1046 6 14 6.89543 14 8C14 9.10457 13.1046 10 12 10V6ZM6 18C7.10457 18 8 17.1046 8 16C8 14.8954 7.10457 14 6 14V18ZM6 18C4.89543 18 4 17.1046 4 16C4 14.8954 4.89543 14 6 14V18ZM6 18V20V18ZM6 14V4V14ZM12 10V20V10ZM18 18C19.1046 18 20 17.1046 20 16C20 14.8954 19.1046 14 18 14V18ZM18 18C16.8954 18 16 17.1046 16 16C16 14.8954 16.8954 14 18 14V18ZM18 18V20V18Z" stroke="#4A5568" stroke-width="2" stroke-linecap="round" stroke-linejoin="round"/>
</svg>
