<svg width="24" height="24" viewBox="0 0 24 24" fill="none" xmlns="http://www.w3.org/2000/svg">
<path d="M19 15C19 14.4477 18.5523 14 18 14C17.4477 14 17 14.4477 17 15H19ZM17 21C17 21.5523 17.4477 22 18 22C18.5523 22 19 21.5523 19 21H17ZM21 19C21.5523 19 22 18.5523 22 18C22 17.4477 21.5523 17 21 17V19ZM15 17C14.4477 17 14 17.4477 14 18C14 18.5523 14.4477 19 15 19V17ZM12 19C12.5523 19 13 18.5523 13 18C13 17.4477 12.5523 17 12 17V19ZM17 12C17 12.5523 17.4477 13 18 13C18.5523 13 19 12.5523 19 12H17ZM6 13C6.55228 13 7 12.5523 7 12C7 11.4477 6.55228 11 6 11V13ZM12 7C12 7.55228 12.4477 8 13 8C13.5523 8 14 7.55228 14 7H12ZM17 15V18H19V15H17ZM17 18V21H19V18H17ZM18 19H21V17H18V19ZM18 17H15V19H18V17ZM4 4.5V2.5C2.89543 2.5 2 3.39543 2 4.5H4ZM12 4.5V7H14V4.5H12ZM12 4.5H14C14 3.39543 13.1046 2.5 12 2.5V4.5ZM4 4.5H12V2.5H4V4.5ZM4 11H2C2 12.1046 2.89543 13 4 13V11ZM4 11V4.5H2V11H4ZM6 11H4V13H6V11ZM10 11V9C8.89543 9 8 9.89543 8 11H10ZM17 11V12H19V11H17ZM10 11H17V9H10V11ZM17 11H19C19 9.89543 18.1046 9 17 9V11ZM10 17H8C8 18.1046 8.89543 19 10 19V17ZM10 17V11H8V17H10ZM12 17H10V19H12V17Z" fill="#4A5568"/>
</svg>
