<svg width="24" height="24" viewBox="0 0 24 24" fill="none" xmlns="http://www.w3.org/2000/svg">
<path d="M9.17752 9.0636C9.68729 8.52587 10 7.79945 10 7C10 5.34315 8.65685 4 7 4C5.34315 4 4 5.34315 4 7C4 8.65685 5.34315 10 7 10C7.8574 10 8.6308 9.64031 9.17752 9.0636ZM9.17752 9.0636L14.8975 14.86M14.8975 14.86C14.3436 15.4043 14 16.162 14 17C14 18.6569 15.3431 20 17 20C18.6569 20 20 18.6569 20 17C20 15.3431 18.6569 14 17 14C16.1811 14 15.4389 14.3281 14.8975 14.86Z" stroke="#4A5568" stroke-width="2"/>
</svg>
